<svg width="631" height="256" viewBox="0 0 631 256" fill="none" xmlns="http://www.w3.org/2000/svg">
<path fill-rule="evenodd" clip-rule="evenodd" d="M0 2C0 0.895431 0.895431 0 2 0H629C630.105 0 631 0.895431 631 2V254C631 255.105 630.105 256 629 256H2.00002C0.895446 256 0 255.105 0 254V2Z" fill="#946CE6"/>
<path d="M283.448 93.064H275.864C276.728 91.72 277.544 90.232 278.264 88.6L273.992 87.064C276.92 86.776 279.704 86.44 282.296 86.056L280.04 82.072C270.152 83.32 257.96 83.944 243.512 83.944L244.952 88.168C256.184 88.168 265.832 87.784 273.896 87.064C273.08 89.128 272.12 91.144 271.016 93.064H265.496C265.016 91.288 264.488 89.656 263.912 88.216L259.496 88.888C260.072 90.184 260.552 91.576 261.032 93.064H254.264C253.784 91.432 253.304 89.944 252.824 88.6L248.36 89.272C248.84 90.424 249.32 91.72 249.752 93.064H242.648V101.464H246.632V105.304H253.448C251.096 112.312 247.208 117.736 241.784 121.576L243.944 125.512C248.312 122.632 251.864 118.648 254.6 113.608C256.808 115.672 259.208 117.496 261.8 119.128C258.632 120.472 254.936 121.48 250.808 122.056L252.872 126.136C257.576 125.272 262.04 123.736 266.216 121.528C270.728 123.736 275.768 125.176 281.336 125.944L283.352 121.816C278.696 121.336 274.376 120.376 270.44 118.936C273.368 116.92 275.864 114.52 277.928 111.784V108.376H257.048C257.432 107.368 257.768 106.36 258.104 105.304H279.512V101.464H283.448V93.064ZM247.256 101.08V97.192H278.84V101.08H259.256C259.448 100.264 259.592 99.4 259.784 98.536L255.272 97.96C255.08 99.016 254.84 100.024 254.648 101.08H247.256ZM258.344 112.264H272.312C270.488 113.944 268.328 115.528 265.832 117.016C263.144 115.672 260.648 114.088 258.344 112.264ZM291.944 97.048H303.656C300.392 107.128 295.448 115.096 288.824 120.952L291.176 125.176C296.408 120.952 300.776 115.288 304.232 108.184C305.768 111.016 308.12 113.704 311.24 116.2C307.832 118.264 303.704 120.184 298.904 121.912L301.304 126.232C306.824 124.072 311.48 121.672 315.272 119.032C319.208 121.528 324.104 123.88 329.912 125.992L332.264 121.672C327.128 119.944 322.712 118.072 319.064 116.056C322.616 112.888 324.968 109.336 326.216 105.4V101.56H307.016C307.496 100.12 308.024 98.632 308.504 97.048H331.64V92.68H309.656C310.472 89.368 311.192 85.816 311.768 82.024L307.112 81.448C306.536 85.384 305.816 89.128 304.904 92.68H297.8L300.296 83.8L295.736 83.032L291.944 97.048ZM307.544 105.688H321.608C320.264 108.472 318.056 111.112 315.032 113.56C311.624 111.16 309.128 108.52 307.544 105.688ZM319.832 81.496L316.76 84.52C320.312 87.256 323 89.848 324.92 92.344L328.184 89.08C325.928 86.536 323.144 83.992 319.832 81.496ZM345.272 102.424H355.928V108.424H345.272V102.424ZM355.928 112.696V118.216C355.928 122.872 358.088 125.224 362.456 125.224H374.744C377.096 125.224 378.728 124.792 379.64 123.976C380.504 123.064 381.08 120.568 381.368 116.44L377 114.952C376.856 117.928 376.568 119.704 376.184 120.184C375.704 120.664 374.936 120.952 373.976 120.952H363.512C361.496 120.952 360.488 119.8 360.488 117.544V112.696H375.992V87.928H360.488V81.736H355.928V87.928H340.712V116.488H345.272V112.696H355.928ZM360.488 108.424V102.424H371.48V108.424H360.488ZM371.48 98.248H360.488V92.248H371.48V98.248ZM355.928 92.248V98.248H345.272V92.248H355.928Z" fill="white"/>
<path opacity="0.5" d="M252.968 153.32V172.424H247.976V174.656H262.256V172.424H255.32V163.016H261.344V160.808H255.32V153.32H252.968ZM243.152 153.488L241.568 155.048C243.272 156.32 244.592 157.52 245.552 158.648L247.112 157.064C246.032 155.864 244.712 154.688 243.152 153.488ZM239.984 160.472V162.656H243.344V171.608C243.344 172.04 243.128 172.424 242.72 172.712L243.584 174.776C245.336 173.672 246.968 172.4 248.504 170.96L247.904 168.56C247.088 169.352 246.296 170.072 245.528 170.696V160.472H239.984ZM264.176 161.648V163.736H267.2C266.48 165.992 265.304 168.032 263.72 169.832L264.704 172.304C265.76 170.744 266.648 169.04 267.368 167.168V175.304H269.48V166.448C270.104 167.408 270.824 168.632 271.664 170.12L272.96 168.176C271.784 166.832 270.632 165.584 269.48 164.48V163.736H272.096V162.464L273.464 163.688C273.8 163.304 274.112 162.872 274.448 162.416V164.312H276.512C276.224 166.52 275.792 168.32 275.24 169.688C274.568 171.2 273.608 172.568 272.312 173.816L273.752 175.664C275.288 174.224 276.464 172.568 277.232 170.72C277.856 169.136 278.36 167 278.72 164.312H281.432C281.384 168.248 281.36 170.576 281.36 171.296C281.312 171.992 281.24 172.496 281.144 172.808C281.024 173.096 280.76 173.24 280.376 173.24C279.608 173.24 278.816 173.216 278 173.192L278.648 175.256H279.752C281.192 175.256 282.104 175.088 282.536 174.752C282.968 174.368 283.232 173.696 283.376 172.736C283.496 171.728 283.592 168.248 283.688 162.248H274.568C275.96 160.232 277.112 157.592 278.024 154.376L275.936 153.536C275.096 156.896 273.824 159.656 272.096 161.768V161.648H269.48V153.368H267.368V161.648H264.176ZM281.888 153.224L279.968 154.328C280.88 158.024 282.464 161.024 284.744 163.376L286.28 161.576C284.192 159.416 282.728 156.632 281.888 153.224ZM270.848 154.976C270.752 156.896 270.488 158.6 270.08 160.04L271.568 160.52C272.096 158.96 272.432 157.184 272.552 155.192L270.848 154.976ZM265.736 155.216L264.08 155.768C264.536 157.352 264.92 158.984 265.232 160.712L266.744 160.328C266.456 158.408 266.12 156.704 265.736 155.216ZM288.296 172.4V174.584H309.704V172.4H288.296ZM293.888 153.632C292.784 156.272 291.464 158.648 289.928 160.808C289.64 161.216 289.328 161.504 288.992 161.648L289.544 163.688C291.032 163.496 292.472 163.328 293.864 163.16C291.92 165.992 290.336 167.6 289.088 167.936L289.52 170.096C292.904 169.856 295.952 169.52 298.664 169.064L298.256 167C296.456 167.36 294.584 167.624 292.664 167.816C294.728 165.56 296.744 162.728 298.736 159.368L296.6 158.648C296.12 159.488 295.64 160.304 295.184 161.072C294.032 161.216 292.904 161.36 291.752 161.456C293.216 159.68 294.656 157.352 296.072 154.496L293.888 153.632ZM304.088 153.632C302.984 156.272 301.664 158.648 300.128 160.808C299.84 161.216 299.528 161.504 299.192 161.648L299.744 163.688C301.256 163.496 302.72 163.328 304.136 163.136C302.216 166.016 300.632 167.6 299.408 167.936L299.816 170.096C303.296 169.856 306.416 169.52 309.176 169.088L308.744 167.024C306.896 167.384 304.976 167.648 302.96 167.84C304.976 165.584 306.968 162.8 308.936 159.464L306.776 158.744C306.32 159.56 305.864 160.328 305.432 161.072C304.28 161.216 303.104 161.36 301.952 161.456C303.416 159.68 304.856 157.352 306.272 154.496L304.088 153.632ZM333.32 155.864H327.824C327.536 154.856 327.224 153.92 326.912 153.08L324.584 153.464C324.944 154.184 325.256 155 325.544 155.864H320.288V160.952H322.448V157.952H331.136V160.856H333.32V155.864ZM324.536 159.176C324.248 160.424 323.912 161.624 323.552 162.8H319.784V164.984H322.784C322.28 166.256 321.728 167.48 321.128 168.632C322.616 169.424 324.008 170.192 325.328 170.96C323.768 172.016 321.56 172.856 318.728 173.48L319.64 175.64C323.192 174.776 325.832 173.648 327.512 172.232C329.552 173.432 331.256 174.536 332.6 175.544L334.136 173.744C332.816 172.832 331.112 171.776 329 170.624C330.152 169.088 330.92 167.216 331.304 164.984H334.016V162.8H325.856C326.168 161.768 326.48 160.616 326.792 159.368L324.536 159.176ZM329.12 164.984C328.736 166.808 328.016 168.32 326.984 169.52C326 168.992 324.944 168.464 323.816 167.912C324.248 167.096 324.68 166.112 325.112 164.984H329.12ZM314.84 175.256C316.376 175.256 317.144 174.464 317.144 172.904V166.28C317.792 165.992 318.464 165.656 319.136 165.32V163.016C318.464 163.352 317.816 163.688 317.144 164V159.92H319.208V157.736H317.144V153.392H314.84V157.736H312.224V159.92H314.84V164.936C313.808 165.296 312.776 165.584 311.72 165.824L312.296 168.104C313.136 167.84 313.976 167.552 314.84 167.24V172.328C314.84 172.88 314.576 173.168 314.048 173.168C313.472 173.168 312.896 173.12 312.296 173.048L312.8 175.256H314.84ZM342.776 162.08H352.496V165.848H342.776V162.08ZM352.496 159.944H342.776V156.344H352.496V159.944ZM342.656 167.96H352.496V172.16C352.496 172.784 352.232 173.12 351.728 173.12C350.816 173.12 349.832 173.072 348.776 173.024L349.4 175.256H352.472C354.008 175.256 354.8 174.488 354.8 172.952V154.16H340.496V165.944C340.448 169.208 339.68 171.896 338.168 174.008L339.92 175.616C341.432 173.576 342.344 171.032 342.656 167.96ZM363.032 156.752H365.216V158.024H360.752V159.848H362.864C362.744 160.664 362.552 161.288 362.288 161.696C361.88 162.272 361.208 162.752 360.272 163.184L361.568 164.84C362.72 164.216 363.536 163.496 364.016 162.68C364.352 162.032 364.592 161.096 364.712 159.848H366.104V161.72C366.104 161.984 365.912 162.224 365.576 162.416L366.368 164.096C367.784 163.688 369.176 163.184 370.568 162.584L370.232 160.952C369.488 161.24 368.744 161.528 368.024 161.768V159.848H370.304V158.024H367.28V156.752H369.968V155H367.28V153.344H365.216V155H363.92C364.04 154.664 364.16 154.304 364.256 153.92L362.504 153.656C362.192 154.856 361.592 155.792 360.704 156.512L361.904 158C362.312 157.64 362.696 157.232 363.032 156.752ZM372.896 156.752H375.344V158.024H371.864C372.224 157.688 372.56 157.256 372.896 156.752ZM371.744 158.024H370.952V159.848H373.256C373.136 160.448 372.944 160.904 372.704 161.24C372.32 161.72 371.696 162.152 370.784 162.488L372.056 164.072C373.16 163.544 373.952 162.92 374.456 162.2C374.768 161.648 374.984 160.856 375.128 159.848H376.16V161.912C376.16 162.416 376.28 162.848 376.568 163.184C376.856 163.52 377.288 163.712 377.84 163.712H379.52C380.24 163.688 380.768 163.568 381.056 163.352C381.32 163.136 381.536 162.392 381.704 161.096L380 160.52C379.928 161.336 379.808 161.768 379.664 161.864C379.52 161.936 379.352 161.984 379.16 161.984H378.464C378.224 161.984 378.104 161.792 378.104 161.456V159.848H381.224V158.024H377.384V156.752H380.6V155H377.384V153.344H375.344V155H373.712C373.832 154.64 373.952 154.256 374.048 153.848L372.296 153.584C372.008 154.856 371.432 155.864 370.592 156.632L371.744 158.024ZM378.896 164.408H363.272V171.584H365.432V166.424H376.712V171.368H378.896V164.408ZM372.488 171.104L371.36 172.808C374.48 173.48 377.528 174.392 380.504 175.568L381.728 173.648C378.944 172.64 375.848 171.776 372.488 171.104ZM370.4 167.432C370.064 169.088 369.176 170.384 367.736 171.344C366.296 172.256 363.944 172.928 360.656 173.408L361.544 175.52C365.384 174.848 368.048 173.936 369.536 172.784C371.24 171.488 372.248 169.784 372.584 167.672L370.4 167.432ZM393.872 154.64H385.52V171.128C384.968 171.224 384.416 171.344 383.84 171.464L384.464 173.648C388.592 172.76 392.216 171.8 395.384 170.768V168.608C394.904 168.752 394.4 168.92 393.872 169.088V154.64ZM387.752 170.648V166.832H391.664V169.712C390.416 170.024 389.096 170.336 387.752 170.648ZM387.752 164.792V161.672H391.664V164.792H387.752ZM387.752 159.608V156.728H391.664V159.608H387.752ZM397.808 153.44V158.048H395.072V160.256H397.808V160.496C397.76 166.76 396.272 171.296 393.344 174.104L395.048 175.616C398.312 172.424 399.992 167.384 400.064 160.496V160.256H403.064C403.016 166.64 402.944 170.384 402.8 171.512C402.608 172.664 401.984 173.264 400.88 173.264C400.256 173.264 399.536 173.216 398.696 173.144L399.248 175.16C400.184 175.208 400.856 175.256 401.24 175.256C403.448 175.256 404.672 174.32 404.936 172.496C405.176 170.672 405.296 165.848 405.296 158.048H400.064V153.44H397.808ZM416.96 162.944V166.784C416.96 167.312 416.672 167.6 416.12 167.6C415.448 167.6 414.68 167.552 413.792 167.456L414.344 169.592C415.184 169.64 416.072 169.664 417.008 169.664C418.448 169.568 419.168 168.872 419.192 167.552V160.928H410.792C412.376 159.224 413.768 157.448 415.016 155.6C416.408 157.064 418.112 159.176 420.176 161.912L421.664 160.352C419.792 157.952 417.776 155.648 415.664 153.44H413.984C412.088 156.272 410 158.744 407.72 160.832L409.064 162.68L410.216 161.528V172.928C410.216 174.368 410.96 175.088 412.472 175.088H418.304C419.456 175.088 420.248 174.896 420.632 174.512C421.064 174.08 421.352 172.808 421.544 170.72L419.408 170C419.312 171.224 419.168 172.04 418.976 172.424C418.808 172.784 418.352 172.976 417.632 172.976H413.456C412.808 172.976 412.496 172.664 412.496 172.088V162.944H416.96ZM422.744 155.432V170.24H424.976V155.432H422.744ZM426.896 175.256C428.456 175.256 429.248 174.416 429.248 172.736V153.392H426.968V172.16C426.968 172.856 426.68 173.216 426.104 173.216C425.048 173.216 423.92 173.168 422.744 173.072L423.272 175.256H426.896ZM442.856 158.744H443.72V175.52H446.024V170.096H452.816V167.912H446.024V164.384H452.768V162.176H446.024V158.744H453.728V156.512H443.84C444.2 155.6 444.56 154.64 444.896 153.632L442.592 153.128C441.2 157.208 439.496 160.424 437.504 162.752L439.136 164.72C440.504 163.04 441.752 161.048 442.856 158.744ZM434.672 162.704V175.52H436.976V159.392C437.936 157.76 438.728 156.032 439.352 154.208L437.192 153.2C436.016 156.8 434.192 159.968 431.72 162.68L432.488 165.128C433.256 164.336 434 163.52 434.672 162.704ZM458.288 155.624V157.76H464.816V160.088H456.296V162.248H466.472C463.208 164.072 459.68 165.392 455.936 166.256L456.872 168.368C458.168 167.912 459.416 167.456 460.616 167.024V175.52H462.92V174.608H472.592V175.52H474.872V164.432H466.736C467.888 163.88 468.896 163.328 469.784 162.8C470.072 162.608 470.36 162.44 470.648 162.248H477.824V160.088H473.504C474.896 158.888 476.192 157.568 477.416 156.08L475.712 154.808C474.128 156.728 472.208 158.504 469.952 160.088H467.12V157.76H472.448V155.624H467.12V153.272H464.816V155.624H458.288ZM462.92 170.432H472.592V172.592H462.92V170.432ZM472.592 168.464H462.92V166.4H472.592V168.464ZM488.912 157.28H485.216C485.672 156.128 486.032 154.904 486.272 153.584L483.992 153.272C483.8 154.664 483.464 155.984 483.032 157.28H480.752V174.68H482.936V172.736H486.728V173.984H488.912V157.28ZM482.936 170.624V165.896H486.728V170.624H482.936ZM482.936 163.856V159.44H486.728V163.856H482.936ZM493.232 163.04L491.384 164.192C492.92 166.136 494.168 167.888 495.08 169.472L496.88 168.2C496.04 166.712 494.816 165.008 493.232 163.04ZM501.296 157.304H493.88C494.264 156.128 494.6 154.88 494.84 153.536L492.584 153.248C492.008 156.56 490.904 159.368 489.32 161.672L490.688 163.472C491.6 162.272 492.368 160.952 493.04 159.512H499.064C499.016 166.352 498.944 170.384 498.8 171.584C498.656 172.592 498.104 173.096 497.144 173.096C496.376 173.096 495.464 173.048 494.408 173L494.96 175.088C496.16 175.16 497.024 175.208 497.504 175.208C499.544 175.208 500.696 174.344 500.936 172.616C501.176 170.696 501.296 165.584 501.296 157.304ZM505.256 154.232V156.464H513.752V164.96H504.296V167.144H513.752V175.448H516.056V167.144H525.704V164.96H516.056V156.464H524.792V154.232H505.256ZM508.616 157.592L506.48 158.624C507.368 160.208 508.208 162.008 509 164.024L511.136 162.968C510.32 161 509.48 159.224 508.616 157.592ZM521.576 157.496C520.904 159.248 520.016 161.024 518.888 162.848L520.952 163.904C522.056 162.128 522.968 160.328 523.664 158.48L521.576 157.496ZM547.208 165.296H530.792V175.496H533.096V174.512H544.904V175.496H547.208V165.296ZM533.096 172.328V167.48H544.904V172.328H533.096ZM529.232 163.064C535.376 162.824 540.968 162.488 545.984 162.056C546.536 162.944 547.088 163.88 547.664 164.888L549.896 163.784C548.144 160.88 546.296 158.24 544.352 155.84L542.288 156.824C543.08 157.832 543.872 158.888 544.64 160.04C540.824 160.4 536.888 160.664 532.808 160.808C534.824 158.984 536.792 156.728 538.736 154.04L536.36 153.224C533.144 157.928 530.624 160.496 528.8 160.904L529.232 163.064Z" fill="white"/>
<path fill-rule="evenodd" clip-rule="evenodd" d="M112.5 140.528C110.878 140.528 109.567 141.839 109.567 143.461C109.567 145.086 110.878 146.397 112.5 146.397C114.121 146.397 115.432 145.086 115.432 143.461C115.432 141.839 114.121 140.528 112.5 140.528Z" fill="white"/>
<path fill-rule="evenodd" clip-rule="evenodd" d="M140.149 149.332C138.527 149.332 137.216 150.643 137.216 152.265C137.216 153.89 138.527 155.201 140.149 155.201C141.77 155.201 143.081 153.89 143.081 152.265C143.081 150.643 141.77 149.332 140.149 149.332Z" fill="white"/>
<path fill-rule="evenodd" clip-rule="evenodd" d="M183.552 156.743C182.574 157.233 181.168 157.259 179.87 156.81C178.994 156.5 178.049 156.21 177.107 155.919C175.36 155.385 172.439 154.494 171.884 153.821C170.971 152.603 169.239 152.36 168.021 153.28C166.804 154.196 166.561 155.923 167.48 157.141C167.786 157.553 168.198 157.892 168.613 158.219C164.398 164.057 145.891 175.674 119.718 169.95C107.924 167.37 99.986 162.658 96.7562 156.331C94.4277 151.76 94.9574 147.052 96.072 144.494C99.276 137.835 122.403 122.501 137.169 113.819C138.479 113.042 138.916 111.352 138.144 110.038C137.371 108.728 135.609 108.202 134.37 109.059C133.178 109.759 129.128 112.166 123.959 115.442C122.212 114.268 119.192 112.817 114.351 112.343C106.674 111.581 88.9319 108.191 83.2007 105.765C79.0954 104.028 69.7776 99.4268 71.8413 94.248C72.3195 93.0407 74.5671 91.0863 79.4375 89.2238C83.1897 87.792 86.9234 87.0006 89.7449 86.6841C89.366 86.8681 88.9981 87.0448 88.6523 87.2141C85.3343 88.8263 81.7145 90.6298 79.283 92.761C79.1064 92.6469 78.9225 92.5328 78.7974 92.4076C77.749 91.3108 76.0201 91.2298 74.9018 92.3193C73.7983 93.372 73.7578 95.1204 74.8135 96.2209C75.7957 97.2515 77.2488 98.0281 79.0991 98.6207C79.169 98.6428 79.2315 98.676 79.3014 98.6907C85.7315 100.671 97.1645 100.424 113.284 99.7839C120.233 99.5115 126.795 99.2538 132.269 99.3606C150.416 99.7213 164.052 106.943 173.962 121.441C180.05 130.349 177.854 139.124 174.37 146.75C173.955 146.43 173.51 146.014 173.175 145.602C172.222 144.413 170.46 144.247 169.301 145.164C168.109 146.117 167.911 147.851 168.86 149.043C169.419 149.75 172.296 153.059 175.86 152.776C175.926 152.779 175.985 152.772 176.051 152.768C176.158 152.753 176.269 152.772 176.383 152.753C178.818 152.308 180.348 152.426 181.779 153.324C183.673 154.52 184.608 155.234 184.42 155.831C184.31 156.206 184.027 156.475 183.552 156.743ZM108.314 125.994C107.766 126.396 107.229 126.793 106.688 127.191C106.107 126.565 105.644 125.969 105.43 125.534C106.07 125.343 107.137 125.571 108.314 125.994ZM184.435 148.48C183.07 147.615 181.639 147.24 180.249 147.085C183.515 139.116 185.594 128.685 178.516 118.324C167.686 102.471 152.159 94.2333 132.376 93.8395C126.74 93.729 120.097 93.9904 113.067 94.2701C104.904 94.594 94.0414 95.0173 86.6585 94.4063C88.13 93.6076 89.697 92.842 91.0544 92.1831C96.2486 89.6544 100.339 87.6852 98.9854 84.1922C98.2755 82.1531 96.1603 81.082 92.684 81.0047C85.3674 80.8391 69.5569 85.0719 66.7133 92.2089C65.1131 96.2283 64.8483 103.987 81.0524 110.845C87.718 113.671 106.545 117.116 113.81 117.838C115.863 118.037 117.433 118.453 118.625 118.894C116.959 119.991 115.248 121.143 113.53 122.321C110.547 120.621 105.669 118.615 102.028 121.099C100.619 122.052 99.8168 123.458 99.78 125.06C99.7285 127.051 100.935 128.998 102.292 130.566C96.9291 134.847 92.5921 138.995 91.0544 142.193C89.3402 146.124 88.6413 152.558 91.8416 158.834C95.9028 166.799 104.882 172.353 118.537 175.342C136.382 179.24 151.795 175.729 161.992 170.359C167.668 167.37 171.696 163.803 173.653 160.619C174.26 160.811 174.867 161.006 175.492 161.201C176.364 161.466 177.236 161.731 178.053 162.022C180.753 162.957 183.74 162.831 186.039 161.672C186.079 161.654 186.123 161.628 186.168 161.606C187.9 160.693 189.147 159.228 189.695 157.461C191.167 152.698 186.966 150.067 184.435 148.48Z" fill="url(#paint0_linear)"/>
<defs>
<linearGradient id="paint0_linear" x1="214.729" y1="162.586" x2="191.747" y2="56.003" gradientUnits="userSpaceOnUse">
<stop stop-color="white"/>
<stop offset="1" stop-color="white"/>
</linearGradient>
</defs>
</svg>
